<svg width="201" height="35" viewBox="0 0 201 35" fill="none" xmlns="http://www.w3.org/2000/svg">
<g clip-path="url(#clip0_4_9287)">
<rect width="201" height="35" fill="white"/>
<path d="M40.2802 30.89V20.9358H19.3973V30.89H12.7844V5.76094H19.3973V15.7151H40.2802V5.76094H46.8931V30.89H40.2802ZM63.0303 22.2584L48.273 5.90016L48.3774 5.76094H55.9301L66.3367 17.5598L76.7781 5.76094H84.296L84.4004 5.90016L69.6432 22.2584V30.89H63.0303V22.2584ZM104.834 10.9817H92.4085V18.0122H104.834C109.393 18.0122 111.656 17.2813 111.656 14.4969C111.656 11.7126 109.393 10.9817 104.834 10.9817ZM105.182 23.2329H92.4085V30.89H85.7956V5.76094H105.008C113.674 5.76094 118.373 8.85857 118.373 14.4969C118.373 20.1353 113.744 23.2329 105.182 23.2329ZM140.323 10.9817H127.758V17.4902H140.323C144.743 17.4902 147.005 16.7941 147.005 14.2533C147.005 11.6778 144.743 10.9817 140.323 10.9817ZM146.275 30.89L137.852 22.7109H127.758V30.89H121.146V5.76094H140.497C148.92 5.76094 153.618 8.75416 153.618 14.2533C153.618 18.6039 150.695 21.3883 145.335 22.328L154.419 30.7508L154.314 30.89H146.275ZM176.387 10.9817H163.822V17.4902H176.387C180.807 17.4902 183.069 16.7941 183.069 14.2533C183.069 11.6778 180.807 10.9817 176.387 10.9817ZM182.338 30.89L173.916 22.7109H163.822V30.89H157.209V5.76094H176.561C184.983 5.76094 189.682 8.75416 189.682 14.2533C189.682 18.6039 186.759 21.3883 181.399 22.328L190.483 30.7508L190.378 30.89H182.338Z" fill="#E4E2DF"/>
</g>
<defs>
<clipPath id="clip0_4_9287">
<rect width="201" height="35" fill="white"/>
</clipPath>
</defs>
</svg>
