<svg width="190" height="96" viewBox="0 0 190 96" fill="none" xmlns="http://www.w3.org/2000/svg">
<path d="M94.9043 76.2704L101.558 70.1392C102.389 71.087 103.276 71.9459 104.219 72.7161C105.106 73.4862 105.993 74.2563 106.88 75.0264C111.649 78.7584 116.805 81.6019 122.35 83.5568C127.894 85.5709 133.633 86.5779 139.565 86.5779C144.167 86.5779 148.769 85.9263 153.371 84.6231C157.973 83.379 162.353 81.5426 166.512 79.1139C170.67 76.6851 174.329 73.6935 177.49 70.1392L184.226 76.2704C180.511 80.4763 176.214 84.0307 171.335 86.9334C166.456 89.8361 161.3 92.0279 155.866 93.5089C150.432 95.0491 144.999 95.8192 139.565 95.8192C134.187 95.8192 128.753 95.0491 123.264 93.5089C117.831 91.9687 112.674 89.7472 107.795 86.8445C102.916 83.9418 98.6191 80.4171 94.9043 76.2704Z" fill="#40FE77"/>
<path d="M165.819 39.6107C168.788 39.6107 171.288 38.8815 173.319 37.4231C175.403 35.9647 176.991 34.0376 178.085 31.6416C179.179 29.2457 179.726 26.6936 179.726 23.9852C179.726 21.2246 179.179 18.6725 178.085 16.3287C176.991 13.9848 175.403 12.0837 173.319 10.6253C171.288 9.16696 168.788 8.43777 165.819 8.43777C162.954 8.43777 160.402 9.14092 158.163 10.5472C155.975 11.9535 154.256 13.8546 153.006 16.2505C151.756 18.5944 151.131 21.1726 151.131 23.9852C151.131 26.7977 151.73 29.402 152.928 31.7979C154.178 34.1417 155.897 36.0428 158.085 37.5012C160.324 38.9075 162.902 39.6107 165.819 39.6107ZM151.209 65.3146H141.756V25.6312L151.209 9.16876V9.14092L153.553 6.17207C155.22 4.08867 157.199 2.55216 159.491 1.56255C161.835 0.520847 164.335 0 166.991 0C171.522 0 175.455 1.06774 178.788 3.20323C182.122 5.28662 184.7 8.1513 186.523 11.7973C188.398 15.3911 189.336 19.4798 189.336 24.0633C189.336 28.5947 188.398 32.6833 186.523 36.3293C184.7 39.9232 182.122 42.7878 178.788 44.9233C175.455 47.0067 171.522 48.0484 166.991 48.0484C164.387 48.0484 161.913 47.5276 159.569 46.4859C157.225 45.4442 155.22 43.9077 153.553 41.8764L151.209 38.9075V65.3146Z" fill="#1E221E"/>
<path d="M86.0742 24.0647C86.0742 19.2729 87.0638 15.0801 89.0431 11.4862C91.0223 7.89234 93.7568 5.1058 97.2465 3.12657C100.788 1.14734 104.903 0.157715 109.591 0.157715C114.33 0.157715 118.445 1.14734 121.935 3.12657C125.424 5.1058 128.133 7.89234 130.06 11.4862C132.039 15.0801 133.029 19.2729 133.029 24.0647C133.029 28.8566 132.039 33.0755 130.06 36.7214C128.133 40.3153 125.424 43.1018 121.935 45.081C118.445 47.0603 114.33 48.0499 109.591 48.0499C104.903 48.0499 100.788 47.0603 97.2465 45.081C93.7047 43.1018 90.9442 40.3153 88.9649 36.7214C87.0378 33.1275 86.0742 28.9086 86.0742 24.0647ZM109.278 39.6902C112.299 39.6902 114.903 38.9871 117.091 37.5808C119.278 36.1745 120.945 34.2994 122.091 31.9556C123.289 29.5597 123.888 26.9294 123.888 24.0647C123.888 21.2001 123.289 18.5958 122.091 16.252C120.893 13.9082 119.2 12.0591 117.013 10.7049C114.877 9.29864 112.299 8.59549 109.278 8.59549C106.361 8.59549 103.835 9.32468 101.7 10.7831C99.6163 12.1894 98.0277 14.0644 96.934 16.4082C95.8402 18.7521 95.2933 21.3042 95.2933 24.0647C95.2933 26.8773 95.8402 29.4816 96.934 31.8775C98.0277 34.2213 99.6163 36.1224 101.7 37.5808C103.783 38.9871 106.309 39.6902 109.278 39.6902Z" fill="#1E221E"/>
<path d="M141.834 24.0647C141.834 19.2729 142.824 15.0801 144.803 11.4862C146.782 7.89234 149.517 5.1058 153.006 3.12657C156.548 1.14734 160.663 0.157715 165.35 0.157715C170.09 0.157715 174.205 1.14734 177.695 3.12657C181.184 5.1058 183.893 7.89234 185.82 11.4862C187.799 15.0801 188.789 19.2729 188.789 24.0647C188.789 28.8566 187.799 33.0755 185.82 36.7214C183.893 40.3153 181.184 43.1018 177.695 45.081C174.205 47.0603 170.09 48.0499 165.35 48.0499C160.663 48.0499 156.548 47.0603 153.006 45.081C149.464 43.1018 146.704 40.3153 144.725 36.7214C142.798 33.1275 141.834 28.9086 141.834 24.0647ZM165.038 39.6902C168.059 39.6902 170.663 38.9871 172.851 37.5808C175.038 36.1745 176.705 34.2994 177.851 31.9556C179.049 29.5597 179.648 26.9294 179.648 24.0647C179.648 21.2001 179.049 18.5958 177.851 16.252C176.653 13.9082 174.96 12.0591 172.772 10.7049C170.637 9.29864 168.059 8.59549 165.038 8.59549C162.121 8.59549 159.595 9.32468 157.459 10.7831C155.376 12.1894 153.788 14.0644 152.694 16.4082C151.6 18.7521 151.053 21.3042 151.053 24.0647C151.053 26.8773 151.6 29.4816 152.694 31.8775C153.788 34.2213 155.376 36.1224 157.459 37.5808C159.543 38.9871 162.069 39.6902 165.038 39.6902Z" fill="#1E221E"/>
<path d="M58.5956 0.3125C59.1165 0.3125 60.1061 0.416669 61.5645 0.625009C63.0229 0.781262 64.6896 1.25003 66.5647 2.0313C68.4397 2.76049 70.2627 3.95845 72.0336 5.62517C73.8045 7.29189 75.2629 9.58363 76.4087 12.5004C77.6067 15.3651 78.2057 19.0631 78.2057 23.5945V47.2671H68.3616V24.2195C68.3616 22.5528 68.1532 20.86 67.7366 19.1412C67.3199 17.4224 66.6428 15.8078 65.7053 14.2973C64.7677 12.7869 63.5698 11.5889 62.1114 10.7035C60.653 9.76593 58.8561 9.29716 56.7206 9.29716C53.8038 9.29716 51.4079 10.0003 49.5329 11.4066C47.6578 12.7608 46.2515 14.5317 45.314 16.7193C44.4285 18.9069 43.9598 21.2507 43.9077 23.7508V47.2671H34.0636V24.2195C34.0636 22.5528 33.8292 20.86 33.3605 19.1412C32.9438 17.4224 32.2667 15.8078 31.3291 14.2973C30.4437 12.7869 29.2457 11.5889 27.7353 10.7035C26.2769 9.76593 24.48 9.29716 22.3445 9.29716C19.4277 9.29716 17.0058 10.0264 15.0786 11.4847C13.2036 12.891 11.7973 14.74 10.8597 17.0318C9.97428 19.2714 9.53156 21.6674 9.53156 24.2195V47.2671H0V1.25003H9.53156V9.14091C10.9899 6.84917 12.9692 4.81785 15.4693 3.04696C17.9693 1.22399 20.9642 0.3125 24.4539 0.3125C24.9227 0.3125 25.8602 0.416669 27.2665 0.625009C28.6728 0.781262 30.2614 1.19794 32.0323 1.87505C33.8032 2.55215 35.548 3.64594 37.2668 5.1564C39.0377 6.66687 40.4961 8.75027 41.642 11.4066V11.3285C42.6316 9.60967 43.8295 7.91691 45.2358 6.25019C46.6942 4.53138 48.4912 3.12509 50.6266 2.0313C52.8142 0.885433 55.4705 0.3125 58.5956 0.3125Z" fill="#1E221E"/>
</svg>
